<?xml version="1.0" encoding="UTF-8" standalone="no"?>
<!-- Created with Inkscape (http://www.inkscape.org/) -->

<svg
   xmlns:dc="http://purl.org/dc/elements/1.1/"
   xmlns:cc="http://creativecommons.org/ns#"
   xmlns:rdf="http://www.w3.org/1999/02/22-rdf-syntax-ns#"
   xmlns:svg="http://www.w3.org/2000/svg"
   xmlns="http://www.w3.org/2000/svg"
   xmlns:sodipodi="http://sodipodi.sourceforge.net/DTD/sodipodi-0.dtd"
   xmlns:inkscape="http://www.inkscape.org/namespaces/inkscape"
   width="744.09448819"
   height="1052.3622047"
   id="svg2"
   version="1.1"
   inkscape:version="0.48.4 r9939"
   sodipodi:docname="logo-acetone.svg"
   inkscape:export-filename="C:\dev\mydev\keto-calc\logo-white.png"
   inkscape:export-xdpi="411.16"
   inkscape:export-ydpi="411.16">
  <defs
     id="defs4" />
  <sodipodi:namedview
     id="base"
     pagecolor="#ffffff"
     bordercolor="#666666"
     borderopacity="1.0"
     inkscape:pageopacity="0.0"
     inkscape:pageshadow="2"
     inkscape:zoom="0.98994949"
     inkscape:cx="195.68737"
     inkscape:cy="708.48131"
     inkscape:document-units="px"
     inkscape:current-layer="layer1"
     showgrid="false"
     inkscape:snap-global="false"
     inkscape:window-width="1821"
     inkscape:window-height="1058"
     inkscape:window-x="1912"
     inkscape:window-y="-8"
     inkscape:window-maximized="1">
    <inkscape:grid
       type="xygrid"
       id="grid3779" />
  </sodipodi:namedview>
  <metadata
     id="metadata7">
    <rdf:RDF>
      <cc:Work
         rdf:about="">
        <dc:format>image/svg+xml</dc:format>
        <dc:type
           rdf:resource="http://purl.org/dc/dcmitype/StillImage" />
        <dc:title></dc:title>
      </cc:Work>
    </rdf:RDF>
  </metadata>
  <g
     inkscape:label="Layer 1"
     inkscape:groupmode="layer"
     id="layer1">
    <g
       id="g3875"
       transform="matrix(0.96719941,-0.25401835,0.25401835,0.96719941,25.470424,-16.701174)"
       style="fill:#33b5e5;stroke:#33b5e5;stroke-opacity:1;fill-opacity:1"
       inkscape:export-xdpi="421.23999"
       inkscape:export-ydpi="421.23999"
       inkscape:export-filename="C:\dev\mydev\keto-calc\logo-1280.png">
      <path
         transform="matrix(0.52444211,0,0,0.52444211,89.698862,108.62572)"
         d="m 278.8021,200.80359 c 0,39.61032 -32.11051,71.72083 -71.72083,71.72083 -39.61032,0 -71.72083,-32.11051 -71.72083,-71.72083 0,-39.61032 32.11051,-71.72083 71.72083,-71.72083 39.61032,0 71.72083,32.11051 71.72083,71.72083 z"
         sodipodi:ry="71.720833"
         sodipodi:rx="71.720833"
         sodipodi:cy="200.80359"
         sodipodi:cx="207.08127"
         id="path2985"
         style="fill:#33b5e5;fill-opacity:1;stroke:#33b5e5;stroke-opacity:1"
         sodipodi:type="arc" />
      <path
         transform="matrix(0.52444211,0,0,0.52444211,89.698862,228.83386)"
         d="m 278.8021,200.80359 c 0,39.61032 -32.11051,71.72083 -71.72083,71.72083 -39.61032,0 -71.72083,-32.11051 -71.72083,-71.72083 0,-39.61032 32.11051,-71.72083 71.72083,-71.72083 39.61032,0 71.72083,32.11051 71.72083,71.72083 z"
         sodipodi:ry="71.720833"
         sodipodi:rx="71.720833"
         sodipodi:cy="200.80359"
         sodipodi:cx="207.08127"
         id="path2985-1"
         style="fill:#33b5e5;fill-opacity:1;stroke:#33b5e5;stroke-opacity:1"
         sodipodi:type="arc" />
      <path
         inkscape:connector-curvature="0"
         id="path3777"
         d="m 188.301,199.96675 0,128.28938"
         style="fill:#33b5e5;stroke:#33b5e5;stroke-width:15.19999981000000000;stroke-linecap:round;stroke-linejoin:miter;stroke-miterlimit:4;stroke-opacity:1;stroke-dasharray:none;fill-opacity:1" />
      <path
         sodipodi:type="arc"
         style="fill:#33b5e5;fill-opacity:1;stroke:#33b5e5;stroke-opacity:1"
         id="path3788"
         sodipodi:cx="207.08127"
         sodipodi:cy="200.80359"
         sodipodi:rx="71.720833"
         sodipodi:ry="71.720833"
         d="m 278.8021,200.80359 c 0,39.61032 -32.11051,71.72083 -71.72083,71.72083 -39.61032,0 -71.72083,-32.11051 -71.72083,-71.72083 0,-39.61032 32.11051,-71.72083 71.72083,-71.72083 39.61032,0 71.72083,32.11051 71.72083,71.72083 z"
         transform="matrix(-0.26222105,-0.45418019,0.45418019,-0.26222105,58.174966,537.93087)" />
      <path
         sodipodi:type="arc"
         style="fill:#33b5e5;fill-opacity:1;stroke:#33b5e5;stroke-opacity:1"
         id="path3790"
         sodipodi:cx="207.08127"
         sodipodi:cy="200.80359"
         sodipodi:rx="71.720833"
         sodipodi:ry="71.720833"
         d="m 278.8021,200.80359 c 0,39.61032 -32.11051,71.72083 -71.72083,71.72083 -39.61032,0 -71.72083,-32.11051 -71.72083,-71.72083 0,-39.61032 32.11051,-71.72083 71.72083,-71.72083 39.61032,0 71.72083,32.11051 71.72083,71.72083 z"
         transform="matrix(-0.26222105,-0.45418019,0.45418019,-0.26222105,161.39374,480.85726)" />
      <path
         style="fill:#33b5e5;stroke:#33b5e5;stroke-width:15.19999981000000000;stroke-linecap:round;stroke-linejoin:miter;stroke-miterlimit:4;stroke-opacity:1;stroke-dasharray:none;fill-opacity:1"
         d="M 82.093017,401.2386 193.19488,337.09391"
         id="path3792"
         inkscape:connector-curvature="0" />
      <path
         transform="matrix(-0.26222105,0.45418019,-0.45418019,-0.26222105,445.00747,349.82644)"
         d="m 278.8021,200.80359 c 0,39.61032 -32.11051,71.72083 -71.72083,71.72083 -39.61032,0 -71.72083,-32.11051 -71.72083,-71.72083 0,-39.61032 32.11051,-71.72083 71.72083,-71.72083 39.61032,0 71.72083,32.11051 71.72083,71.72083 z"
         sodipodi:ry="71.720833"
         sodipodi:rx="71.720833"
         sodipodi:cy="200.80359"
         sodipodi:cx="207.08127"
         id="path3796"
         style="fill:#33b5e5;fill-opacity:1;stroke:#33b5e5;stroke-opacity:1"
         sodipodi:type="arc" />
      <path
         transform="matrix(-0.26222105,0.45418019,-0.45418019,-0.26222105,343.809,292.75283)"
         d="m 278.8021,200.80359 c 0,39.61032 -32.11051,71.72083 -71.72083,71.72083 -39.61032,0 -71.72083,-32.11051 -71.72083,-71.72083 0,-39.61032 32.11051,-71.72083 71.72083,-71.72083 39.61032,0 71.72083,32.11051 71.72083,71.72083 z"
         sodipodi:ry="71.720833"
         sodipodi:rx="71.720833"
         sodipodi:cy="200.80359"
         sodipodi:cx="207.08127"
         id="path3798"
         style="fill:#33b5e5;fill-opacity:1;stroke:#33b5e5;stroke-opacity:1"
         sodipodi:type="arc" />
      <path
         inkscape:connector-curvature="0"
         id="path3800"
         d="M 314.50759,401.2386 203.40572,337.09391"
         style="fill:#33b5e5;stroke:#33b5e5;stroke-width:15.19999981000000000;stroke-linecap:round;stroke-linejoin:miter;stroke-miterlimit:4;stroke-opacity:1;stroke-dasharray:none;fill-opacity:1" />
      <path
         style="fill:#33b5e5;stroke:#33b5e5;stroke-width:15.19999981000000000;stroke-linecap:round;stroke-linejoin:miter;stroke-miterlimit:4;stroke-opacity:1;stroke-dasharray:none;fill-opacity:1"
         d="m 208.301,199.96675 0,128.28938"
         id="path3805"
         inkscape:connector-curvature="0" />
    </g>
  </g>
</svg>
